<svg xmlns="http://www.w3.org/2000/svg" viewBox="0 0 64 64" role="img" aria-label="HandVivante MirrorCoach mark">
  <defs><linearGradient id="g" x1="0" x2="1" y1="0" y2="1"><stop stop-color="#ff5d8f"/><stop offset="1" stop-color="#7c3aed"/></linearGradient></defs>
  <rect width="64" height="64" rx="18" fill="#151125"/>
  <path d="M18 39c0-4 3-7 7-7h2V18a3 3 0 0 1 6 0v12h2V15a3 3 0 0 1 6 0v15h2V19a3 3 0 0 1 6 0v16c0 10-7 17-17 17-8 0-14-4-17-11-1-2 0-4 3-4z" fill="url(#g)"/>
  <circle cx="25" cy="27" r="2" fill="#fff" opacity=".9"/>
  <circle cx="38" cy="24" r="2" fill="#fff" opacity=".9"/>
</svg>
