<svg xmlns="http://www.w3.org/2000/svg" viewBox="0 0 600 600" role="img" aria-label="Robotic hand schematic"><defs><linearGradient id="g" x1="0" x2="1"><stop stop-color="#ff5d8f"/><stop offset="1" stop-color="#9b7cff"/></linearGradient></defs><rect width="600" height="600" rx="48" fill="#151022"/><g transform="translate(82 45)"><path d="M107 430c-38-45-58-101-58-160V145c0-18 14-32 32-32s32 14 32 32V78c0-18 14-32 32-32s32 14 32 32V48c0-18 14-32 32-32s32 14 32 32v44c0-18 14-32 32-32s32 14 32 32v64c0-18 14-32 32-32s32 14 32 32v125c0 112-72 211-179 246-47 15-99-2-131-47z" fill="#d7c8bc"/><g fill="none" stroke="#e8ecf2" stroke-width="20" stroke-linecap="round"><path d="M82 294l60-205 20 288"/><path d="M146 331l63-278 20 306"/><path d="M215 323l52-235 23 258"/><path d="M282 318l44-165 11 182"/></g><g fill="#8e96a1"><circle cx="142" cy="89" r="14"/><circle cx="209" cy="53" r="14"/><circle cx="267" cy="88" r="14"/><circle cx="326" cy="153" r="14"/></g><path d="M75 326h288v150c0 51-41 92-92 92h-104c-51 0-92-41-92-92z" fill="#f3f5f8" stroke="#adb4bf" stroke-width="9"/><rect x="144" y="375" width="150" height="106" rx="28" fill="url(#g)"/></g><text x="300" y="575" text-anchor="middle" fill="#fff" font-family="system-ui,sans-serif" font-size="28" font-weight="800">Robotic hand · schematic</text></svg>
